<svg xmlns="http://www.w3.org/2000/svg" width="64" height="64" viewBox="0 0 64 64" fill="none">
  <rect width="64" height="64" rx="16" fill="#0F172A" />
  <path
    d="M48.5 16H46.5V12C46.5 11.3 45.95 10.75 45.25 10.75H42.5C41.8 10.75 41.25 11.3 41.25 12V16H22.75V12C22.75 11.3 22.2 10.75 21.5 10.75H18.75C18.05 10.75 17.5 11.3 17.5 12V16H15.5C13.025 16 11 18.025 11 20.5V48.5C11 50.975 13.025 53 15.5 53H48.5C50.975 53 53 50.975 53 48.5V20.5C53 18.025 50.975 16 48.5 16ZM47.5 48.5H16.5V26.5H47.5V48.5Z"
    fill="#3B82F6" />
</svg>